<svg width="50" height="50" viewBox="0 0 50 50" fill="none" xmlns="http://www.w3.org/2000/svg">
<rect width="50" height="50" rx="1.11111" fill="#334155"/>
<path d="M19.4075 5.86607C15.5447 5.9353 13.1069 6.03916 12.7636 6.16033C11.2356 6.69693 9.91372 8.08171 9.27851 9.77806C8.95233 10.6609 8.93516 11.1282 8.93516 16.3384C8.93516 22.8469 8.91799 22.7777 10.4459 24.1105C12.6434 26.0146 15.2185 26.6897 17.828 26.0319C19.8023 25.5472 20.9182 24.7683 23.9569 21.7218C28.6437 17.0135 30.3948 16.0442 34.1202 16.0442C36.4379 16.0442 38.4808 16.7366 40.1461 18.104C40.5581 18.4502 40.9186 18.6753 40.9701 18.6406C41.0045 18.5887 41.056 16.8404 41.056 14.7459C41.0731 10.4185 41.1595 9.51309 40.078 8.09369C39.3913 7.17628 37.9486 6.33343 37.1761 6.12571C36.3864 5.91799 26.1716 5.76221 19.4075 5.86607Z" fill="#F1F5F9"/>
<path d="M32.2653 19.7719C30.4279 20.1493 29.037 21.11 25.74 24.3351C22.2026 27.8004 21.0005 28.5896 18.3217 29.2243C15.2136 29.962 12.3459 29.3958 9.95902 27.5431L8.99739 26.8054L8.94588 29.6875C8.91153 32.1578 8.94588 32.7239 9.25497 33.7018C9.80447 35.5374 11.2641 36.9612 13.2045 37.5273C13.9772 37.7504 15.1964 37.8018 20.7086 37.8018C27.2511 37.8018 27.3026 37.8018 27.8865 38.1792C28.9511 38.8997 29.1744 39.5345 29.1744 42.0048V44.1663L29.5693 44.0634C30.3077 43.8404 32.7805 42.3651 34.2744 41.2671C35.0987 40.6496 36.6441 39.2943 37.6744 38.2478C39.6492 36.2407 40.5078 34.9541 40.8341 33.4959C40.9371 33.067 41.023 30.5281 41.0401 27.8519L41.0573 22.9627L40.2159 22.2079C38.2926 20.4581 36.2663 19.6003 34.0855 19.6346C33.4158 19.6518 32.5916 19.7032 32.2653 19.7719Z" fill="#8B5CF6"/>
</svg>
