<svg width="126" height="32" viewBox="0 0 126 32" fill="none" xmlns="http://www.w3.org/2000/svg">
<path d="M6.91886 3.76918C4.44373 3.81344 2.88164 3.87983 2.66163 3.95728C1.68258 4.3003 0.835535 5.1855 0.428513 6.26987C0.219502 6.83419 0.208501 7.13295 0.208501 10.4635C0.208501 14.624 0.197501 14.5797 1.17655 15.4317C2.58463 16.6489 4.23472 17.0804 5.9068 16.6599C7.17187 16.3501 7.88691 15.8522 9.83401 13.9047C12.8372 10.8951 13.9592 10.2754 16.3464 10.2754C17.8314 10.2754 19.1405 10.718 20.2076 11.5922C20.4716 11.8135 20.7026 11.9573 20.7356 11.9352C20.7576 11.902 20.7906 10.7844 20.7906 9.44554C20.8016 6.67928 20.7136 6.15923 20.0206 5.25189C19.5805 4.66545 18.7995 4.06793 18.3045 3.93515C17.7984 3.80237 11.2531 3.70279 6.91886 3.76918ZM19.9545 5.38467C20.1306 5.65023 20.1306 5.67236 19.9435 5.6281C19.8445 5.61704 19.7345 5.48426 19.7235 5.34041C19.6685 5.01953 19.7235 5.03059 19.9545 5.38467Z" fill="url(#paint0_linear_194_14151)"/>
<path d="M15.1578 12.6583C13.9804 12.8996 13.0892 13.5137 10.9765 15.5753C8.70988 17.7905 7.93965 18.2949 6.22314 18.7006C4.23155 19.1722 2.39401 18.8103 0.864562 17.626L0.24838 17.1544L0.21537 18.9967C0.193364 20.5759 0.21537 20.9377 0.413429 21.5628C0.765533 22.7362 1.70081 23.6464 2.94418 24.0083C3.43932 24.1508 4.22055 24.1837 7.75259 24.1837C11.9448 24.1837 11.9778 24.1837 12.352 24.425C13.0342 24.8856 13.1772 25.2913 13.1772 26.8704V28.2522L13.4303 28.1864C13.9034 28.0438 15.4879 27.1007 16.4452 26.3989C16.9733 26.0041 17.9636 25.1378 18.6238 24.4688C19.8892 23.1858 20.4393 22.3633 20.6484 21.4312C20.7144 21.1571 20.7694 19.5341 20.7804 17.8234L20.7914 14.698L20.2523 14.2155C19.0199 13.0969 17.7215 12.5486 16.3241 12.5706C15.895 12.5815 15.3668 12.6144 15.1578 12.6583Z" fill="url(#paint1_linear_194_14151)"/>
<path d="M37.2529 11.4276C37.1644 10.6 36.7917 9.95561 36.1346 9.49443C35.4839 9.03324 34.6374 8.80265 33.595 8.80265C32.8621 8.80265 32.2335 8.91321 31.7092 9.13433C31.1848 9.35544 30.7837 9.65552 30.5057 10.0346C30.2277 10.4136 30.0856 10.8464 30.0793 11.3328C30.0793 11.7372 30.1709 12.0878 30.3541 12.3847C30.5436 12.6816 30.7995 12.9343 31.1217 13.1428C31.4438 13.345 31.8008 13.5156 32.1925 13.6545C32.5842 13.7935 32.979 13.9104 33.377 14.0052L35.1965 14.46C35.9293 14.6306 36.6337 14.8612 37.3097 15.1518C37.992 15.4424 38.6017 15.8088 39.1387 16.2511C39.682 16.6933 40.1116 17.2271 40.4274 17.8526C40.7433 18.478 40.9013 19.2109 40.9013 20.0511C40.9013 21.1883 40.6106 22.1896 40.0294 23.0551C39.4482 23.9143 38.608 24.5871 37.5087 25.0736C36.4158 25.5537 35.0922 25.7938 33.5381 25.7938C32.0282 25.7938 30.7173 25.56 29.6054 25.0925C28.4999 24.625 27.6344 23.9427 27.0089 23.0456C26.3898 22.1485 26.055 21.0556 26.0044 19.7668H29.4633C29.5138 20.4428 29.7223 21.005 30.0887 21.4536C30.4551 21.9021 30.9321 22.237 31.5197 22.4581C32.1135 22.6792 32.7769 22.7898 33.5097 22.7898C34.2741 22.7898 34.9438 22.676 35.5187 22.4486C36.0999 22.2149 36.5548 21.8927 36.8833 21.482C37.2118 21.0651 37.3792 20.5786 37.3855 20.0227C37.3792 19.5173 37.2307 19.1003 36.9401 18.7718C36.6495 18.437 36.242 18.159 35.7177 17.9379C35.1996 17.7104 34.5932 17.5083 33.8982 17.3314L31.6902 16.7628C30.0919 16.3522 28.8284 15.7299 27.8997 14.896C26.9773 14.0557 26.5161 12.9407 26.5161 11.5508C26.5161 10.4073 26.8257 9.40598 27.4448 8.54679C28.0703 7.6876 28.92 7.0211 29.994 6.54728C31.068 6.06714 32.2841 5.82708 33.6424 5.82708C35.0196 5.82708 36.2263 6.06714 37.2623 6.54728C38.3047 7.0211 39.1229 7.68128 39.7167 8.52784C40.3106 9.36808 40.617 10.3347 40.6359 11.4276H37.2529ZM50.2331 25.7843C48.8116 25.7843 47.5797 25.4716 46.5373 24.8461C45.4949 24.2207 44.6863 23.3457 44.1114 22.2212C43.5428 21.0967 43.2585 19.7826 43.2585 18.279C43.2585 16.7754 43.5428 15.4582 44.1114 14.3274C44.6863 13.1965 45.4949 12.3184 46.5373 11.6929C47.5797 11.0675 48.8116 10.7548 50.2331 10.7548C51.6546 10.7548 52.8865 11.0675 53.9289 11.6929C54.9713 12.3184 55.7768 13.1965 56.3454 14.3274C56.9203 15.4582 57.2077 16.7754 57.2077 18.279C57.2077 19.7826 56.9203 21.0967 56.3454 22.2212C55.7768 23.3457 54.9713 24.2207 53.9289 24.8461C52.8865 25.4716 51.6546 25.7843 50.2331 25.7843ZM50.2521 23.0361C51.0228 23.0361 51.6672 22.8245 52.1852 22.4012C52.7033 21.9716 53.0886 21.3967 53.3413 20.6765C53.6004 19.9563 53.7299 19.154 53.7299 18.2695C53.7299 17.3788 53.6004 16.5733 53.3413 15.8531C53.0886 15.1265 52.7033 14.5485 52.1852 14.1189C51.6672 13.6893 51.0228 13.4745 50.2521 13.4745C49.4624 13.4745 48.8053 13.6893 48.281 14.1189C47.7629 14.5485 47.3744 15.1265 47.1154 15.8531C46.8627 16.5733 46.7363 17.3788 46.7363 18.2695C46.7363 19.154 46.8627 19.9563 47.1154 20.6765C47.3744 21.3967 47.7629 21.9716 48.281 22.4012C48.8053 22.8245 49.4624 23.0361 50.2521 23.0361ZM63.5498 16.9713V25.5H60.1193V10.9443H63.3981V13.4176H63.5687C63.9035 12.6027 64.4374 11.9551 65.1702 11.475C65.9094 10.9949 66.8223 10.7548 67.9089 10.7548C68.9134 10.7548 69.7884 10.9696 70.5338 11.3992C71.2856 11.8288 71.8668 12.4511 72.2775 13.266C72.6944 14.081 72.8998 15.0697 72.8934 16.2321V25.5H69.463V16.7628C69.463 15.7899 69.2103 15.0286 68.7049 14.479C68.2058 13.9294 67.514 13.6545 66.6296 13.6545C66.0294 13.6545 65.4956 13.7872 65.0281 14.0526C64.5669 14.3116 64.2036 14.6875 63.9383 15.1802C63.6793 15.673 63.5498 16.27 63.5498 16.9713ZM82.7299 25.7843C81.3085 25.7843 80.0765 25.4716 79.0341 24.8461C77.9917 24.2207 77.1831 23.3457 76.6082 22.2212C76.0396 21.0967 75.7553 19.7826 75.7553 18.279C75.7553 16.7754 76.0396 15.4582 76.6082 14.3274C77.1831 13.1965 77.9917 12.3184 79.0341 11.6929C80.0765 11.0675 81.3085 10.7548 82.7299 10.7548C84.1514 10.7548 85.3833 11.0675 86.4257 11.6929C87.4681 12.3184 88.2736 13.1965 88.8422 14.3274C89.4171 15.4582 89.7045 16.7754 89.7045 18.279C89.7045 19.7826 89.4171 21.0967 88.8422 22.2212C88.2736 23.3457 87.4681 24.2207 86.4257 24.8461C85.3833 25.4716 84.1514 25.7843 82.7299 25.7843ZM82.7489 23.0361C83.5196 23.0361 84.164 22.8245 84.682 22.4012C85.2001 21.9716 85.5855 21.3967 85.8382 20.6765C86.0972 19.9563 86.2267 19.154 86.2267 18.2695C86.2267 17.3788 86.0972 16.5733 85.8382 15.8531C85.5855 15.1265 85.2001 14.5485 84.682 14.1189C84.164 13.6893 83.5196 13.4745 82.7489 13.4745C81.9592 13.4745 81.3021 13.6893 80.7778 14.1189C80.2597 14.5485 79.8712 15.1265 79.6122 15.8531C79.3595 16.5733 79.2331 17.3788 79.2331 18.2695C79.2331 19.154 79.3595 19.9563 79.6122 20.6765C79.8712 21.3967 80.2597 21.9716 80.7778 22.4012C81.3021 22.8245 81.9592 23.0361 82.7489 23.0361ZM92.6161 25.5V10.9443H95.9423V13.3703H96.0939C96.3593 12.53 96.8141 11.8825 97.4585 11.4276C98.1092 10.9664 98.8516 10.7358 99.6855 10.7358C99.875 10.7358 100.087 10.7453 100.32 10.7643C100.56 10.7769 100.759 10.799 100.917 10.8306V13.9862C100.772 13.9357 100.542 13.8915 100.226 13.8536C99.9161 13.8093 99.616 13.7872 99.3254 13.7872C98.6999 13.7872 98.1377 13.923 97.6386 14.1947C97.1458 14.46 96.7573 14.8296 96.473 15.3034C96.1887 15.7773 96.0466 16.3237 96.0466 16.9428V25.5H92.6161Z" fill="#374151"/>
<path d="M102.169 23.5302C102.169 22.9113 102.264 22.112 102.453 21.1321C102.659 20.135 102.917 19.0692 103.227 17.9346C103.553 16.7829 103.923 15.6139 104.335 14.4277C104.748 13.2244 105.169 12.0984 105.599 11.0498C106.029 10.0012 106.45 9.08145 106.862 8.29068C107.275 7.49991 107.645 6.93262 107.971 6.5888C108.143 6.606 108.367 6.67476 108.642 6.79509C108.934 6.89824 109.226 7.02717 109.518 7.18188C109.811 7.3366 110.077 7.50851 110.318 7.6976C110.558 7.86951 110.713 8.03282 110.782 8.18754C110.283 8.63449 109.785 9.31352 109.286 10.2246C108.805 11.1185 108.332 12.1414 107.868 13.2932C107.421 14.4449 107 15.6655 106.605 16.9548C106.209 18.2269 105.865 19.4646 105.573 20.668C105.281 21.8713 105.049 22.9887 104.877 24.0201C104.722 25.0516 104.645 25.8853 104.645 26.5214C104.645 26.8136 104.671 26.9941 104.722 27.0629C104.344 27.0457 104.069 26.9769 103.897 26.8566C103.725 26.7534 103.588 26.6331 103.484 26.4956C103.399 26.3753 103.313 26.2463 103.227 26.1088C103.158 25.9885 103.046 25.8939 102.891 25.8252C102.771 25.7736 102.668 25.6532 102.582 25.4641C102.496 25.2751 102.419 25.0688 102.35 24.8453C102.298 24.6046 102.255 24.3639 102.221 24.1233C102.187 23.8826 102.169 23.6849 102.169 23.5302ZM110.69 26.9597C109.865 26.7191 109.289 26.4784 108.962 26.2377C108.653 25.9971 108.498 25.6962 108.498 25.3352C108.498 25.0602 108.575 24.6734 108.73 24.1748C108.885 23.6763 109.108 23.0918 109.401 22.4214C109.71 21.7338 110.071 20.9774 110.484 20.1522C110.913 19.3271 111.395 18.4418 111.928 17.4963C111.481 17.4791 111.077 17.4705 110.716 17.4705C110.372 17.4533 110.088 17.4447 109.865 17.4447C109.968 17.1868 110.26 16.9634 110.741 16.7743C111.223 16.5852 111.859 16.4219 112.65 16.2843C113.32 15.1669 114.033 14.1011 114.79 13.0869C115.563 12.0726 116.337 11.1443 117.111 10.302C117.884 9.44245 118.658 8.69466 119.431 8.05861C120.205 7.40536 120.944 6.88964 121.649 6.51145C121.666 6.39111 121.675 6.28797 121.675 6.20202C121.692 6.11606 121.7 6.05589 121.7 6.02151C121.941 6.02151 122.259 6.08168 122.655 6.20202C123.067 6.32235 123.463 6.46847 123.841 6.64038C124.236 6.81228 124.58 6.99279 124.872 7.18188C125.182 7.35379 125.353 7.49991 125.388 7.62024C124.821 8.6173 124.262 10.1129 123.712 12.107C123.162 14.0839 122.706 16.4562 122.345 19.2239C122.259 19.9116 122.182 20.6937 122.113 21.5705C122.061 22.4472 122.036 23.4271 122.036 24.5101C122.036 24.8883 122.036 25.2751 122.036 25.6704C122.036 26.0658 122.053 26.4784 122.087 26.9082C122.053 26.9254 122.019 26.9339 121.984 26.9339C121.95 26.9339 121.881 26.9339 121.778 26.9339C121.537 26.9339 121.254 26.891 120.927 26.805C120.617 26.7363 120.308 26.6417 119.999 26.5214C119.706 26.4182 119.449 26.2979 119.225 26.1604C119.019 26.0228 118.89 25.9025 118.838 25.7994C118.821 25.5759 118.812 25.3524 118.812 25.1289C118.812 24.9226 118.812 24.6992 118.812 24.4585C118.812 23.3927 118.847 22.3097 118.916 21.2095C119.002 20.1093 119.139 18.9747 119.328 17.8057C119.087 17.7885 118.769 17.7713 118.374 17.7541C117.979 17.7198 117.532 17.694 117.033 17.6768C116.552 17.6596 116.028 17.6424 115.46 17.6252C114.91 17.5908 114.369 17.565 113.836 17.5478C113.423 18.3214 113.036 19.095 112.675 19.8686C112.314 20.625 112.005 21.39 111.747 22.1635C111.455 22.9887 111.214 23.8138 111.025 24.639C110.853 25.4641 110.741 26.2377 110.69 26.9597ZM120.643 11.4624C120.712 11.2217 120.789 10.8951 120.875 10.4825C120.978 10.0527 121.073 9.60577 121.159 9.14162C120.729 9.29633 120.248 9.57998 119.715 9.99256C119.199 10.4051 118.658 10.9209 118.09 11.5397C117.54 12.1414 116.973 12.829 116.389 13.6026C115.821 14.359 115.271 15.1669 114.738 16.0265C116.182 15.9061 117.824 15.8288 119.663 15.7944C119.801 15.0724 119.947 14.359 120.102 13.6542C120.274 12.9322 120.454 12.2016 120.643 11.4624Z" fill="url(#paint2_linear_194_14151)"/>
<defs>
<linearGradient id="paint0_linear_194_14151" x1="10.5" y1="28.2522" x2="10.5" y2="12.57" gradientUnits="userSpaceOnUse">
<stop stop-color="#E200CB"/>
<stop offset="0.427885" stop-color="#8A00CA"/>
<stop offset="1" stop-color="#0094CA"/>
</linearGradient>
<linearGradient id="paint1_linear_194_14151" x1="10.5" y1="28.2522" x2="10.5" y2="12.57" gradientUnits="userSpaceOnUse">
<stop stop-color="#E200CB"/>
<stop offset="0.427885" stop-color="#8A00CA"/>
<stop offset="1" stop-color="#0094CA"/>
</linearGradient>
<linearGradient id="paint2_linear_194_14151" x1="111.291" y1="3" x2="111.291" y2="29" gradientUnits="userSpaceOnUse">
<stop offset="0.129808" stop-color="#0094CA"/>
<stop offset="0.528846" stop-color="#8A00CA"/>
<stop offset="1" stop-color="#E200CB"/>
</linearGradient>
</defs>
</svg>
