<svg width="680" height="811" viewBox="0 0 680 811" fill="none" xmlns="http://www.w3.org/2000/svg">
<path d="M221.639 0.699395C139.887 2.16425 88.2924 4.36154 81.0255 6.92504C48.688 18.2776 20.7107 47.5747 7.26702 83.4636C0.363517 102.14 0.000175525 112.028 0.000175525 222.258C0.000175525 359.955 -0.363166 358.49 31.9743 386.688C78.4821 426.972 132.983 441.254 188.211 427.338C229.996 417.084 253.613 400.604 317.925 336.151C417.117 236.541 454.178 216.033 533.023 216.033C582.075 216.033 625.312 230.681 660.556 259.612C669.277 266.937 676.907 271.697 677.997 270.965C678.724 269.866 679.814 232.879 679.814 188.567C680.177 97.0135 682.005 77.8577 659.115 47.8282C644.581 28.4189 614.049 10.5871 597.698 6.19259C580.985 1.79803 364.796 -1.49789 221.639 0.699395Z" fill="#334155"/>
<path d="M493.765 294.898C454.878 302.882 425.44 323.207 355.662 391.44C280.795 464.754 255.355 481.449 198.66 494.878C132.879 510.485 72.1862 498.508 21.6694 459.31L1.31734 443.704L0.227054 504.678C-0.499806 556.941 0.227054 568.918 6.7688 589.606C18.3986 628.441 49.2901 658.565 90.3577 670.542C106.712 675.26 132.516 676.349 249.177 676.349C387.644 676.349 388.734 676.349 401.091 684.334C423.623 699.577 428.348 713.006 428.348 765.269V811L436.707 808.822C452.334 804.104 504.668 772.891 536.287 749.663C553.731 736.597 586.44 707.925 608.246 685.785C650.04 643.321 668.212 616.101 675.117 585.251C677.298 576.177 679.115 522.462 679.478 465.843L679.842 362.405L662.034 346.435C621.329 309.415 578.445 291.268 532.289 291.994C518.115 292.357 500.67 293.446 493.765 294.898Z" fill="#8B5CF6"/>
</svg>
