<svg width="21" height="26" viewBox="0 0 21 26" fill="none" xmlns="http://www.w3.org/2000/svg">
<path d="M6.91886 0.769179C4.44373 0.813439 2.88164 0.87983 2.66163 0.957285C1.68258 1.3003 0.835535 2.1855 0.428513 3.26987C0.219502 3.83419 0.208501 4.13295 0.208501 7.46352C0.208501 11.624 0.197501 11.5797 1.17655 12.4317C2.58463 13.6489 4.23472 14.0804 5.9068 13.6599C7.17187 13.3501 7.88691 12.8522 9.83401 10.9047C12.8372 7.89506 13.9592 7.27542 16.3464 7.27542C17.8314 7.27542 19.1405 7.71802 20.2076 8.59215C20.4716 8.81345 20.7026 8.9573 20.7356 8.93517C20.7576 8.90197 20.7906 7.78441 20.7906 6.44554C20.8016 3.67928 20.7136 3.15923 20.0206 2.25189C19.5805 1.66545 18.7995 1.06793 18.3045 0.935154C17.7984 0.802374 11.2531 0.702789 6.91886 0.769179ZM19.9545 2.38467C20.1306 2.65023 20.1306 2.67236 19.9435 2.6281C19.8445 2.61704 19.7345 2.48426 19.7235 2.34041C19.6685 2.01953 19.7235 2.03059 19.9545 2.38467Z" fill="url(#paint0_linear_194_14152)"/>
<path d="M15.1578 9.65829C13.9804 9.89955 13.0892 10.5137 10.9765 12.5753C8.70988 14.7905 7.93965 15.2949 6.22314 15.7006C4.23155 16.1722 2.39401 15.8103 0.864562 14.626L0.24838 14.1544L0.21537 15.9967C0.193364 17.5759 0.21537 17.9377 0.413429 18.5628C0.765533 19.7362 1.70081 20.6464 2.94418 21.0083C3.43932 21.1508 4.22055 21.1837 7.75259 21.1837C11.9448 21.1837 11.9778 21.1837 12.352 21.425C13.0342 21.8856 13.1772 22.2913 13.1772 23.8704V25.2522L13.4303 25.1864C13.9034 25.0438 15.4879 24.1007 16.4452 23.3989C16.9733 23.0041 17.9636 22.1378 18.6238 21.4688C19.8892 20.1858 20.4393 19.3633 20.6484 18.4312C20.7144 18.1571 20.7694 16.5341 20.7804 14.8234L20.7914 11.698L20.2523 11.2155C19.0199 10.0969 17.7215 9.54863 16.3241 9.57057C15.895 9.58153 15.3668 9.61443 15.1578 9.65829Z" fill="url(#paint1_linear_194_14152)"/>
<defs>
<linearGradient id="paint0_linear_194_14152" x1="10.5" y1="25.2522" x2="10.5" y2="9.56996" gradientUnits="userSpaceOnUse">
<stop stop-color="#E200CB"/>
<stop offset="0.427885" stop-color="#8A00CA"/>
<stop offset="1" stop-color="#0094CA"/>
</linearGradient>
<linearGradient id="paint1_linear_194_14152" x1="10.5" y1="25.2522" x2="10.5" y2="9.56996" gradientUnits="userSpaceOnUse">
<stop stop-color="#E200CB"/>
<stop offset="0.427885" stop-color="#8A00CA"/>
<stop offset="1" stop-color="#0094CA"/>
</linearGradient>
</defs>
</svg>
