<svg width="1080" height="308" viewBox="0 0 1080 308" fill="none" xmlns="http://www.w3.org/2000/svg">
<path d="M120.547 266V42.0215H204.539C221.746 42.0215 236.182 45.2295 247.847 51.6456C259.586 58.0616 268.444 66.8837 274.423 78.1118C280.474 89.2669 283.5 101.953 283.5 116.171C283.5 130.534 280.474 143.293 274.423 154.448C268.371 165.603 259.44 174.389 247.629 180.805C235.817 187.148 221.272 190.32 203.992 190.32H148.326V156.964H198.524C208.586 156.964 216.824 155.214 223.24 151.714C229.656 148.214 234.396 143.402 237.458 137.278C240.593 131.154 242.16 124.118 242.16 116.171C242.16 108.223 240.593 101.224 237.458 95.1726C234.396 89.1211 229.62 84.4185 223.131 81.0646C216.715 77.6379 208.44 75.9245 198.305 75.9245H161.121V266H120.547ZM326.267 269.281C309.863 269.281 295.645 265.672 283.615 258.454C271.585 251.236 262.252 241.138 255.618 228.16C249.056 215.182 245.775 200.017 245.775 182.664C245.775 165.312 249.056 150.11 255.618 137.059C262.252 124.008 271.585 113.874 283.615 106.656C295.645 99.4379 309.863 95.8288 326.267 95.8288C342.672 95.8288 356.889 99.4379 368.919 106.656C380.949 113.874 390.245 124.008 396.807 137.059C403.442 150.11 406.759 165.312 406.759 182.664C406.759 200.017 403.442 215.182 396.807 228.16C390.245 241.138 380.949 251.236 368.919 258.454C356.889 265.672 342.672 269.281 326.267 269.281ZM326.486 237.565C335.381 237.565 342.818 235.123 348.796 230.238C354.775 225.28 359.222 218.645 362.139 210.333C365.128 202.022 366.623 192.762 366.623 182.555C366.623 172.275 365.128 162.979 362.139 154.667C359.222 146.282 354.775 139.611 348.796 134.653C342.818 129.695 335.381 127.216 326.486 127.216C317.372 127.216 309.79 129.695 303.738 134.653C297.759 139.611 293.276 146.282 290.286 154.667C287.37 162.979 285.912 172.275 285.912 182.555C285.912 192.762 287.37 202.022 290.286 210.333C293.276 218.645 297.759 225.28 303.738 230.238C309.79 235.123 317.372 237.565 326.486 237.565ZM511.536 142.418L475.446 146.355C474.425 142.71 472.639 139.283 470.087 136.075C467.608 132.867 464.254 130.279 460.025 128.31C455.797 126.342 450.62 125.357 444.496 125.357C436.257 125.357 429.33 127.144 423.716 130.716C418.175 134.289 415.441 138.918 415.514 144.605C415.441 149.49 417.227 153.464 420.873 156.526C424.591 159.588 430.716 162.104 439.246 164.072L467.9 170.197C483.794 173.623 495.605 179.055 503.334 186.492C511.135 193.929 515.072 203.662 515.145 215.692C515.072 226.264 511.974 235.597 505.849 243.69C499.798 251.71 491.377 257.98 480.586 262.5C469.795 267.021 457.401 269.281 443.402 269.281C422.842 269.281 406.291 264.979 393.751 256.376C381.21 247.7 373.737 235.633 371.331 220.176L409.936 216.458C411.686 224.04 415.405 229.764 421.092 233.628C426.779 237.492 434.179 239.424 443.293 239.424C452.698 239.424 460.244 237.492 465.931 233.628C471.691 229.764 474.571 224.988 474.571 219.301C474.571 214.489 472.712 210.516 468.993 207.381C465.348 204.246 459.661 201.839 451.932 200.163L423.279 194.148C407.166 190.794 395.245 185.143 387.517 177.196C379.788 169.176 375.961 159.042 376.033 146.793C375.961 136.44 378.768 127.472 384.455 119.889C390.214 112.233 398.198 106.328 408.405 102.172C418.686 97.9432 430.533 95.8288 443.949 95.8288C463.634 95.8288 479.128 100.021 490.429 108.406C501.803 116.79 508.838 128.128 511.536 142.418ZM570.079 98.0161V128.638H473.51V98.0161H570.079ZM497.352 57.77H536.941V215.474C536.941 220.796 537.743 224.879 539.348 227.722C541.024 230.493 543.212 232.389 545.909 233.409C548.607 234.43 551.596 234.94 554.877 234.94C557.356 234.94 559.616 234.758 561.658 234.394C563.772 234.029 565.376 233.701 566.47 233.409L573.141 264.36C571.027 265.089 568.001 265.891 564.064 266.766C560.2 267.64 555.461 268.151 549.846 268.297C539.931 268.588 530.999 267.094 523.052 263.813C515.105 260.459 508.798 255.282 504.132 248.283C499.539 241.284 497.279 232.534 497.352 222.035V57.77Z" fill="#E2E8F0"/>
<path d="M603.834 167.572V266H564.244V98.0161H602.084V126.56H604.053C607.917 117.155 614.078 109.682 622.535 104.141C631.066 98.5994 641.601 95.8288 654.142 95.8288C665.734 95.8288 675.832 98.3077 684.435 103.266C693.112 108.223 699.819 115.405 704.559 124.81C709.371 134.216 711.74 145.626 711.667 159.042V266H672.077V165.166C672.077 153.938 669.161 145.152 663.328 138.809C657.568 132.466 649.585 129.294 639.377 129.294C632.451 129.294 626.29 130.825 620.895 133.888C615.572 136.877 611.38 141.215 608.318 146.902C605.329 152.589 603.834 159.479 603.834 167.572ZM778.992 269.281C762.587 269.281 748.37 265.672 736.34 258.454C724.31 251.236 714.977 241.138 708.343 228.16C701.781 215.182 698.5 200.017 698.5 182.664C698.5 165.312 701.781 150.11 708.343 137.059C714.977 124.008 724.31 113.874 736.34 106.656C748.37 99.4379 762.587 95.8288 778.992 95.8288C795.397 95.8288 809.614 99.4379 821.644 106.656C833.674 113.874 842.97 124.008 849.532 137.059C856.167 150.11 859.484 165.312 859.484 182.664C859.484 200.017 856.167 215.182 849.532 228.16C842.97 241.138 833.674 251.236 821.644 258.454C809.614 265.672 795.397 269.281 778.992 269.281ZM779.211 237.565C788.106 237.565 795.543 235.123 801.521 230.238C807.5 225.28 811.947 218.645 814.864 210.333C817.853 202.022 819.348 192.762 819.348 182.555C819.348 172.275 817.853 162.979 814.864 154.667C811.947 146.282 807.5 139.611 801.521 134.653C795.543 129.695 788.106 127.216 779.211 127.216C770.097 127.216 762.514 129.695 756.463 134.653C750.484 139.611 746 146.282 743.011 154.667C740.095 162.979 738.637 172.275 738.637 182.555C738.637 192.762 740.095 202.022 743.011 210.333C746 218.645 750.484 225.28 756.463 230.238C762.514 235.123 770.097 237.565 779.211 237.565ZM876.748 266L829.283 98.0161H869.639L899.167 216.13H900.698L930.883 98.0161H970.801L1000.99 215.474H1002.63L1031.72 98.0161H1072.18L1024.61 266H983.378L951.881 152.48H949.584L918.087 266H876.748Z" fill="#8B5CF6"/>
<path d="M32.0978 45.3025C20.2584 45.5148 12.7865 45.8332 11.7341 46.2047C7.05101 47.8498 2.99932 52.0952 1.05241 57.2959C0.0526446 60.0024 2.54202e-05 61.4352 2.54202e-05 77.4087C2.54202e-05 97.3623 -0.0525936 97.1501 4.63052 101.236C11.3658 107.074 19.2587 109.143 27.2568 107.127C33.308 105.641 36.7283 103.253 46.0419 93.9129C60.4069 79.4784 65.7741 76.5066 77.1925 76.5066C84.2961 76.5066 90.5578 78.6293 95.6618 82.8217C96.9247 83.883 98.0297 84.5729 98.1876 84.4668C98.2928 84.3076 98.4507 78.9477 98.4507 72.5265C98.5033 59.2594 98.768 56.4836 95.453 52.132C93.3483 49.3194 88.9266 46.7354 86.5587 46.0985C84.1382 45.4617 52.8298 44.9841 32.0978 45.3025Z" fill="#E2E8F0"/>
<path d="M71.5071 87.9349C65.8755 89.092 61.6123 92.0372 51.507 101.925C40.6648 112.549 36.9805 114.968 28.7699 116.914C19.2436 119.176 10.454 117.44 3.13817 111.76L0.190778 109.498L0.032882 118.334C-0.072382 125.908 0.032882 127.643 0.980258 130.641C2.66448 136.269 7.1382 140.634 13.0856 142.37C15.4541 143.053 19.1909 143.211 36.0858 143.211C56.1386 143.211 56.2965 143.211 58.086 144.368C61.3492 146.577 62.0334 148.523 62.0334 156.097V162.723L63.2439 162.408C65.5071 161.724 73.0861 157.201 77.6651 153.835C80.1914 151.942 84.9283 147.787 88.0862 144.579C94.1389 138.425 96.7705 134.481 97.7705 130.01C98.0863 128.695 98.3494 120.911 98.4021 112.707L98.4547 97.7174L95.8757 95.4032C89.981 90.0387 83.7704 87.409 77.0861 87.5142C75.0335 87.5667 72.5071 87.7245 71.5071 87.9349Z" fill="#8B5CF6"/>
</svg>
